<svg id="Layer_1" xmlns="http://www.w3.org/2000/svg" version="1.1" viewBox="480 170 1000 720">
  <defs>
    <style>
      .st0 {
        fill: #00deb4;
      }

      .st1 {
        fill: #00c3d3;
      }

      .st2 {
        fill: #00eca4;
      }

      .st3 {
        fill: #00c0d5;
      }

      .st4 {
        fill: #00e7aa;
      }

      .st5 {
        fill: #00e0af;
      }

      .st6 {
        fill: #00d5bc;
      }

      .st7 {
        fill: #00f19c;
      }

      .st8 {
        fill: #00f697;
      }

      .st9 {
        fill: #00c8ce;
      }

      .st10 {
        fill: #00f19e;
      }

      .st11 {
        fill: #00ccc8;
      }

      .st12 {
        fill: #00fa91;
      }

      .st13 {
        fill: #00b0eb;
      }

      .st14 {
        fill: #00d3be;
      }

      .st15 {
        fill: #00c5ce;
      }

      .st16 {
        fill: #00f499;
      }

      .st17 {
        fill: #00a4f8;
      }

      .st18 {
        fill: #00eaa6;
      }

      .st19 {
        fill: #00f698;
      }

      .st20 {
        fill: #01f292;
      }

      .st21 {
        fill: #00b5e6;
      }

      .st22 {
        fill: #00deb5;
      }

      .st23 {
        fill: #00d6be;
      }

      .st24 {
        fill: #00b9df;
      }

      .st25 {
        fill: #00bbdf;
      }

      .st26 {
        fill: #00badb;
      }

      .st27 {
        fill: #00acf0;
      }

      .st28 {
        fill: #00cfc5;
      }

      .st29 {
        fill: #00a8f2;
      }

      .st30 {
        fill: #00a2fa;
      }

      .st31 {
        fill: #00e2ae;
      }

      .st32 {
        fill: #00fc8f;
      }

      .st33 {
        fill: #00b3e8;
      }

      .st34 {
        fill: #00f993;
      }

      .st35 {
        fill: #00aaf1;
      }

      .st36 {
        fill: #00f19d;
      }

      .st37 {
        fill: #00bbde;
      }

      .st38 {
        fill: #00a5f8;
      }

      .st39 {
        fill: #00adef;
      }

      .st40 {
        fill: #00adee;
      }

      .st41 {
        fill: #00d0c3;
      }

      .st42 {
        fill: #00e1ae;
      }

      .st43 {
        fill: #00f29c;
      }

      .st44 {
        fill: #00dcb7;
      }

      .st45 {
        fill: #00a6f7;
      }

      .st46 {
        fill: #00a5f6;
      }

      .st47 {
        fill: #00eea1;
      }

      .st48 {
        fill: #00b9e0;
      }

      .st49 {
        fill: #00f495;
      }

      .st50 {
        fill: #00c6cf;
      }

      .st51 {
        fill: #00aeee;
      }

      .st52 {
        fill: #00c9ce;
      }

      .st53 {
        fill: #00c9cd;
      }

      .st54 {
        fill: #00aaf2;
      }

      .st55 {
        fill: #202020;
      }

      .st56 {
        fill: #00deb3;
      }

      .st57 {
        fill: #00bae0;
      }

      .st58 {
        fill: #00d7bd;
      }

      .st59 {
        fill: #00b6e5;
      }

      .st60 {
        fill: #00dbb6;
      }

      .st61 {
        fill: #00b1ea;
      }

      .st62 {
        fill: #00e6ab;
      }

      .st63 {
        fill: #00cbcb;
      }

      .st64 {
        fill: #00a1f8;
      }

      .st65 {
        fill: #00cfc4;
      }

      .st66 {
        fill: #00a3f7;
      }

      .st67 {
        fill: #00c5d0;
      }

      .st68 {
        fill: #00dab6;
      }

      .st69 {
        fill: #00dcb5;
      }

      .st70 {
        fill: #00b1eb;
      }

      .st71 {
        fill: #00c1d5;
      }

      .st72 {
        fill: #00cacb;
      }

      .st73 {
        fill: #00c8cd;
      }

      .st74 {
        fill: #00c2d5;
      }

      .st75 {
        fill: #00f891;
      }

      .st76 {
        fill: #00b7e3;
      }

      .st77 {
        fill: #00e7a7;
      }

      .st78 {
        fill: #00e2af;
      }

      .st79 {
        fill: #00cec6;
      }

      .st80 {
        fill: #00f893;
      }

      .st81 {
        fill: #00d2c0;
      }

      .st82 {
        fill: #01f494;
      }

      .st83 {
        fill: #00dfb1;
      }

      .st84 {
        fill: #00a1fc;
      }

      .st85 {
        fill: #00d4be;
      }

      .st86 {
        fill: #00d8ba;
      }

      .st87 {
        fill: #00b5e3;
      }

      .st88 {
        fill: #00e2ad;
      }

      .st89 {
        fill: #00bcdb;
      }

      .st90 {
        fill: #00e1b1;
      }

      .st91 {
        fill: #00dfb2;
      }

      .st92 {
        fill: #00c3d4;
      }

      .st93 {
        fill: #00c9cb;
      }

      .st94 {
        fill: #00ef9f;
      }

      .st95 {
        fill: #00c9cc;
      }

      .st96 {
        fill: #00cacc;
      }

      .st97 {
        fill: #00dab8;
      }

      .st98 {
        fill: #00e8a7;
      }

      .st99 {
        fill: #00cec7;
      }

      .st100 {
        fill: #00d2bf;
      }

      .st101 {
        fill: #00d6bb;
      }

      .st102 {
        fill: #00d2c2;
      }

      .st103 {
        fill: #00eca3;
      }

      .st104 {
        fill: #00b6e4;
      }

      .st105 {
        fill: #00e3ae;
      }

      .st106 {
        fill: #00d1c2;
      }

      .st107 {
        fill: #fefefe;
      }

      .st108 {
        fill: #00e5ab;
      }

      .st109 {
        fill: #00dbb5;
      }

      .st110 {
        fill: #00c4d4;
      }

      .st111 {
        fill: #01f493;
      }

      .st112 {
        fill: #00b9de;
      }

      .st113 {
        fill: #00bfd9;
      }

      .st114 {
        fill: #00eca2;
      }

      .st115 {
        fill: #00f09f;
      }

      .st116 {
        fill: #00dcb6;
      }

      .st117 {
        fill: #00a5f7;
      }

      .st118 {
        fill: #00e0b1;
      }

      .st119 {
        fill: #00abf1;
      }

      .st120 {
        fill: #00d5be;
      }

      .st121 {
        fill: #00eba4;
      }

      .st122 {
        fill: #00f599;
      }

      .st123 {
        fill: #00c4d3;
      }

      .st124 {
        fill: #fdfdfd;
      }

      .st125 {
        fill: #00c1d4;
      }

      .st126 {
        fill: #00f09e;
      }
    </style>
  </defs>
  <polygon class="st107" points="678 582 689.84 582.17 719.99 649 748.16 582.17 760 582 760 661 752 661 752 595 721.54 661.07 714.9 660.38 686 595 686 661 678 661 678 582"/>
  <polygon class="st107" points="782 582 793.84 582.16 823.99 649 852.14 582.14 864 582 864 661 856 661 856 595 827.1 660.38 820.46 661.07 790 595 790 661 782 661 782 582"/>
  <path class="st107" d="M1032,647v-65h8v79c-3.02-.33-7.1,1-9.49-1.01l-43.09-61.91-3.42-3.08v66h-8v-79c3.21.4,8-1.08,10.49,1.01l43.09,61.91,2.41,2.09Z"/>
  <path class="st107" d="M1278,648v-66h8v79c-3.61-.29-8.01,1.27-10.55-1.95l-45.45-64.05v66h-8v-79c3.61.29,8.01-1.27,10.55,1.95l45.45,64.05Z"/>
  <path class="st107" d="M613.76,582.26c58.73-8.47,63.75,74.79,11.62,79.61s-56.78-73.1-11.62-79.61Z"/>
  <path class="st107" d="M911.74,582.24c63.12-9.82,62.51,84.68,4.88,79.63-47.09-4.12-46-73.24-4.88-79.63Z"/>
  <path class="st124" d="M1422,590h-41v27h37v8h-37v28h39.5c1.93,0,1.59,6.38,1.5,8h-50v-79h48.5c1.93,0,1.59,6.38,1.5,8Z"/>
  <path class="st107" d="M565.01,633c.37-.28,8.07,2.15,7.87,4.32-.57,6.1-11.95,17.74-17.56,20.51-34.77,17.17-68.92-17.93-53.5-53.5,13.37-30.88,61.47-30.88,70.75,2.72-9.53,5.63-6.77,1.94-10.36-3.75-21.52-34.11-71.14-1.4-51.39,35.39,9.62,17.92,37.43,21.21,49.62,4.26,1.46-2.03,4.14-9.61,4.58-9.94Z"/>
  <path class="st107" d="M1204,582v8h-41v27h38v8h-38v28h40.5c1.93,0,1.59,6.38,1.5,8h-50v-79h49Z"/>
  <path class="st107" d="M1347.01,603c-1.66-19.66-36.78-17.79-34.96,1.37,1.57,16.54,32.14,8.43,41.16,24.92,13.88,25.39-26.43,45.52-45.72,22.72-1.64-1.94-7.38-11.11-5.49-13.01.28-.28,7.65-1.23,7.95-.96.25.22,1.01,4.36,2.21,6.29,9.64,15.44,37.95,11.95,34.78-7.78-2.58-16.05-33.27-6.8-41.12-24.87-13.64-31.36,42.48-42.78,48.77-11.65l-7.57,2.96Z"/>
  <path class="st107" d="M1136.97,600.96c-1.69-.54-6.67,2.27-6.95,2.04-.5-.4-2.92-7.44-6.99-10.53-9.55-7.25-27.72-3.09-28.12,10.02-.63,20.89,35.35,8.01,42.15,29.95,10.66,34.37-49.99,40.71-51.97,6.65,9.29-3.87,7.43,4.04,12.98,9.34,13.66,13.03,40.15,1.28,29.78-15.77-7-11.51-37.86-4.22-40.76-25.24-4.35-31.51,45.78-35.23,49.88-6.45Z"/>
  <path class="st32" d="M601,724c.68,31.22.84,62.49.49,93.79,1.28.45,1.02.85-.49,1.21l.3-1.33c10.47.72,21.03,1.16,31.7,1.33,3.42.11,2.81,8.88,0,10-14.32.08-28.68-.06-43,0v-104.5c0-1.86,9.08-2.42,11-.5Z"/>
  <path class="st74" d="M1066,736v21h18v9h-18v48.5c0,.79,5.14,4.93,6.71,5.29,3.47.78,7.71-.11,11.29.21-.25,1.57.35,8.68,0,9.01-1.34,1.26-14.37.34-17.02-.49-6-1.88-11.98-8.6-11.98-15.02v-47.5l-13.02-.58v-8.43s13.02,0,13.02,0v-21h11Z"/>
  <path class="st44" d="M846,765c2.4,2.29,4.19,5.64,7,6v-14h10v78.5c0,8-7.08,16.76-13,21.5-5.03,2.52-4.81-6.85-3-10,2.8-3.4,6-13.26,6-17.5v-15.5c-6.47,7-12.84,13.93-23,15-3.13-.15-3.86-7.92-1-9l1.53-2.19c20.07-3.34,26.28-28.83,13.25-43.17l.21-2.64c-2.11-2.15-1.37-6.9,2-7Z"/>
  <path class="st105" d="M816,757c3.21.73,2.89,8.91,0,10l-.55,2.44c-19.99,11.56-13.6,49.26,11.51,48.67l2.04,1.89,1,9c-47.3,4.98-50.82-63.5-14-72Z"/>
  <path class="st33" d="M1204,756c1.84,1.98,1.09,6.65,0,9-25.07,4.34-28.09,47.68-1,55,2.86.52,2.7,8.25,1,10-41.11-4.44-41.33-67.73,0-74Z"/>
  <rect class="st85" x="908" y="757" width="11" height="72"/>
  <path class="st36" d="M702,760c5.12-1.64,5.42,6.42,2,9l-.16,2.6c-13.37,11.53-11.48,36.44,4.39,44.88l.77,2.52c4.24,1.69,3.47,8.81-1,9-31.61-9.14-35.33-53.05-6-68Z"/>
  <path class="st18" d="M738,825c-3.21.67-4.47-8.06-2-10l.06-2.69c12.84-13.18,9.03-32.59-5.1-42.93l.04-2.38c-2.96-.79-1.12-8.88,2-9,28.91,10.61,32.01,51.89,5,67Z"/>
  <rect class="st57" x="1123" y="757" width="10" height="72"/>
  <path class="st96" d="M991,829c-6.18,2-6.85-5.51-3-8,5.28-.6,10.86-4.22,11.78-9.75,1.9-11.32-10.12-11.82-17.78-14.25-3.04-.83-3.07-8.99,0-10,3.02.86,7.2.9,10.63,1.87,25.35,7.19,24.38,34.95-1.63,40.13Z"/>
  <path class="st84" d="M1305,788c2.64.79,5.92.68,9.52,1.98,25.34,9.15,17.03,38.63-9.52,40.02-3.07-.45-2.98-8.22,0-9,5.56-.22,12.02-3.1,13.55-8.98,2.72-10.52-9.16-12.79-16.55-15.02-1.95-2.93-2.32-11,3-9Z"/>
  <path class="st117" d="M973,342c5.58.67,10.39,5.42,11.56,10.94,1.04,4.93,1.12,24.18-.23,28.88-1.65,5.76-6.07,7.93-11.33,9.17l-2.67-.15c-1.17-15.01-1.48-30.25-.96-45.72l1.63-3.13c.58-.72,1.25-.48,2,0Z"/>
  <path class="st121" d="M865,405c3.33-.17,6,.4,7.99,1.71l-.54,46.09c-2.26,3.22-6.41,3.95-12.45,2.2l-2-.92v-45.49c-3.14-.11-5.48-.98-7-2.59-.57,1.9-1.44,1.89-2,0,4.38-1.73,11.04-1.15,16-1Z"/>
  <path class="st45" d="M1298,756c3.19.23,2.23,6.71,1,9-3.42.58-9.33,4.83-9.94,8.56-1.8,10.97,7.87,12.02,15.94,14.44-4.05-.81-.55,5.97-3,9-3.03-.92-6.69-.85-10.27-2.23-22.76-8.74-14.6-36.14,6.27-38.77Z"/>
  <path class="st99" d="M979,756c3.13.15,3.86,7.92,1,9-2.17.41-7.2,4.03-8.45,6.05-5.51,8.85,3.05,13.85,10.45,15.95v10c-3.26-1.03-7.43-1.39-10.7-2.8-20.59-8.82-12.53-35.65,7.7-38.2Z"/>
  <path class="st108" d="M880,408l2,.67v40.92l-2,3.41c-8.48,4.62-17.77,2.62-27,3,.13-3.07,6.18-3.98,7-1,3.1-.14,6.25.1,9.35.05l1.16-2.55.49-46.49-6-1.01c3.35.1,14.03-.94,15,3Z"/>
  <path class="st94" d="M857,278c2.48.31,4.81.64,7,1l2,.92v47.89l-2,1.19c-3.29.07-6.72.17-10,0l-2-.92v-46.49c-1.37-.49-2.37-1.35-3-2.59,1.66-1.78,5.5-.98,8-1Z"/>
  <path class="st27" d="M971,342c2.15,14.49-1.11,31.24.42,45.47.16,1.49-.04,2.64,1.58,3.53-4.45,1.05-6.5.85-11,1-.79-.09-1.97-.36-2-.92-.61-13-.6-28.74,0-41.75-.7-3.88-.03-6.32,2-7.33,2.61-.92,6.41-.94,9,0Z"/>
  <path class="st76" d="M973,342c-.65-.08-1.34.04-2,0-2.89-.19-6.08-.06-9,0-1.69,1.76-4.02,2.49-7,2.19v46.62s-2,1.19-2,1.19c-3.56-.16-5.33.32-9-1l-1.99-2.16c-.36-14.39-.68-28.79-.95-43.2l1.95-2.64c6.87-3.15,16.85-2.1,24.51-2.02,1.69.02,4.45-.64,5.49,1.02Z"/>
  <path class="st61" d="M962,342v50c-2.95.1-6.05.13-9,0v-50.01c2.99-.04,6.01.07,9,0Z"/>
  <path class="st19" d="M849,279c1.65-.12,3.35.07,5.01,0v50.01c-5.03-.27-4.52.3-9.01-2l-2-3.03v-41.37l2-2.6c1.58-.61,2.21-.87,4-1Z"/>
  <path class="st43" d="M851,406c2.98-.17,6.02.12,9.01,0v49.01c-2.12.1-6.53,1.01-7.01,1-1.12-.03-1.83-.98-2-1-.79-.09-1.97-.36-2-.92-.62-12.42-.4-26.94,0-39.44-.74-4.34-.07-7.22,2-8.64Z"/>
  <path class="st40" d="M1204,756c16.67-2.53,34.01,5.67,39.03,22.42.02.96-7.76,3.02-9.37,2.64-.5-.12-3.88-6.82-5.62-8.61-5.81-5.99-15.88-8.87-24.04-7.46-2-2.13-1.2-6.57,0-9Z"/>
  <path class="st40" d="M1203,820c8.41,2.27,19.03.1,25-6.5,1.69-1.87,5.1-9.46,5.65-9.58,2.64-.54,6.45,2.38,9.36,2.09-3.73,17.5-22.05,25.83-39,23.99-1.71-3.02-.84-6.67-1-10Z"/>
  <path class="st39" d="M1068,279c2.81.29,3.1-.06,6,1l1.42,1.9c.49,14.73.68,29.43.58,44.1,2.48,2.98-3.84,5.67-5,2-2.16.44-4.16.44-6,0-.78,0-1.98-.2-2-.69-.25-6.5-.74-42.67.7-46,.72-1.66,2.48-2.99,4.29-2.31Z"/>
  <path class="st0" d="M775,215l2.03,1.45c.63,31.54.95,47.31.95,47.31l-1.98,1.23c-4.65.89-7.17.92-12,1-.47-1.95.29-2.42,1.95-2.92l-.93-46.86,1.98-1.22c2.58.1,5.56-.31,8,0Z"/>
  <path class="st62" d="M880,281c1.1,1.31,1.76,2.77,2,4.37v39.08l-2,2.55c-3.77,1.43-4.94,1.7-9,2l-2-.92v-46.49c-2.06-.39-3.73-1.25-5-2.59-2.2-.05-5.63.76-7-1,7.79-.06,16.26-1.51,23,3Z"/>
  <path class="st13" d="M825,415c1.54,3.06,1.1,5.54.17,8.7l.69,17.54-1.86,3.76c-2.71,3.62-5.22,7.35-8,11l-1.83,1.35c-2.5.5-1.87-19.87-.17-22.35.68-1,2.91-4.56,2.84-5.34-.68-1.67-1.77-3.24-2.84-4.66-2.3-6.67-2.77-15.04-.38-21.79l2.38-.21c2.96,4.01,6.04,7.97,9,12Z"/>
  <path class="st46" d="M1083,430c1.92.56,1.92,1.44,0,2-.28,8.96.9,15.64-8,21-2.33.91-2.79,1.02-4.08-.84s-.41-39.56.8-43.25c.33-1,.79-1.96,1.28-2.91,2.25-2.84,5.91.43,7.91,2.53,4.65,4.88,5.45,15.7,2.09,21.47Z"/>
  <path class="st51" d="M1073,406c.36,14.48-.48,29.06,0,43.55.06,1.93-1.02,4.01,2,3.45-4.14,2.49-5.59,1.76-10,2l-2-.92v-47.89l2-1.19c.92-3.18,8.05-2.44,8,1Z"/>
  <path class="st62" d="M768,468l2,.92v47.89l-2,1.19c-2.64.08-5.36.08-8,0-.79-.09-1.98-.37-2-.92-.25-5.94-1.46-45.99,0-47.89l2-1.19c2.62-.1,5.38-.11,8,0Z"/>
  <path class="st22" d="M773,468c2.6.62,4.24,1.73,4.92,3.34l-.9,45.52-2.02,1.15c-2.29.2-4.69-.07-7,0v-50c1.64.07,3.38-.16,5,0Z"/>
  <path class="st79" d="M792,359c-4.51,6.54-3.05,7.11,1,13,1.09,3.35,2.7,21.15-1.57,21.39-.47.03-.95-.15-1.43-.39-1.29-1.82-3.82-3.67-5-6-.93.22-2.07.18-2.47-.6-2.07-4.07-2.2-38.22.15-41.06l2.32-.34c1.35-2.79,4.49-4.97,6-7l2.39,1.13c1.13,6.61,1.46,13.68-1.39,19.87Z"/>
  <path class="st89" d="M944,391c-7.28-2.62-8.45-8.29-9-15l-.73-7.03c-4.44.41-4.72-4.13.06-5.68l.66-7.29c.51-6.53,1.56-10.05,8-13l1,48Z"/>
  <path class="st92" d="M1149,215l2.02.88c.32,15.96.64,31.92.96,47.89l-1.98,1.23c-3.63-.18-5.23.19-9-1l-1.79-1.54c.11-15.08.36-30.19.77-45.31l2.02-1.15c3.01-.75,3.76-.81,7-1Z"/>
  <path class="st37" d="M1157,215c.79.09,1.98.37,2,.92.62,15.13.62,32.75,0,47.89l-2,1.19c-2.32.01-4.69.12-7,0l-1-50c2.63-.15,5.36-.02,8,0Z"/>
  <path class="st18" d="M864,279c2.33.05,4.68-.04,7.01,0v50.01c-2.31.17-4.69-.05-7.01,0v-50Z"/>
  <path class="st63" d="M922,350c1.31,5.18,1.56,10.68.75,16.5.82,5.86.57,11.36-.75,16.5-2.77,3.4-5.4,6.77-8,10l-2.32-.14c-1.71-1.7-1.06-16.66-.68-19.86,1.24-1.68,2.01-4.12,3.93-5.64-.98-1.36-2.17-4.31-2.93-5.36-.9-3.51-2.78-20.18,1.24-20.98.57-.11,1.16-.08,1.76-.02,2.34,2.98,4.66,6.05,7,9Z"/>
  <path class="st62" d="M767,215l.98,49.52-3.98,1.48c-4.05.07-9.71.79-13-1,1.55-2.6,2.43-2.6,4,0,.45-1.73,1.48-2.12,3.01-2.19v-46.62s1.99-1.19,1.99-1.19c2.31-.07,4.7-.09,7,0Z"/>
  <path class="st78" d="M823,865c-14.91-.65-28.74-10.02-32.01-24.99l10-3.02c1.88,10.6,11.58,18.01,22.01,19,3.1.48,2.96,8.26,0,9Z"/>
  <path class="st118" d="M889,308c1.26,2.91,1.77,21.33.03,22.16-1.06.24-2.08-.14-3.03-1.16-.78-.87-2.48-3.81-3.5-3.83-.46-.01-1.66,1.51-2.5,1.83v-46c12.02,8.04,3.45,18.7,9,27Z"/>
  <path class="st121" d="M1107,297c-.88,1.28-4.06,5.37-3.89,6.35,1.94,1.99,3.24,4.46,4.89,6.65,2.3,2.39.91,19.19-.61,20.48-.36.3-.85.44-1.39.52-3.8.05-7.98-5.35-7-9l-1.13-4.66c.49-11.4.33-23.26.13-34.34,2.53-3.41,5.51-6.63,8-10,.49-.68,1.25-1.33,2.08-1.17,2.82.55,1.73,21.45-1.08,25.17Z"/>
  <path class="st38" d="M1083,303c.9.18.86.52,0,1,2.74,3.63,2.82,10.98,1.3,15.12-1.2,3.28-4.57,9.24-8.3,6.88-2.3-.7-1.93-2.58-2.06-4.45-.91-13.46.79-27.98.06-41.55,11.21,4.1,8.93,13.13,9,23Z"/>
  <path class="st13" d="M825,288c1.18,10.06,1.18,20.06,0,30-2.9,3.77-6.09,7.29-9,11l-2.35-.19c-2.23-3.05-1.1-15.96.35-19.81.52-.67,3.79-5.15,3.78-5.49,0-.45-1.61-1.81-1.78-3.51-3.25-3.27-3.17-20.68-.33-22.95.49-.39,1.62.37,2.33.95,2.27,3.16,4.63,6.67,7,10Z"/>
  <path class="st103" d="M1108,423c-3.19,4.55-5.37,5.89-2,11,1.47,3.61,2.5,20.61.44,22.84-.54.58-1.76-.08-2.44-.84-1.99-2.53-4.83-5.24-7-8-.46-12.48-.13-24.81,1-37-.03-4.89,3.32-9.65,8-11,.79.14,1.83.32,2.09.98,1.48,3.73,1.59,18.13-.09,22.02Z"/>
  <path class="st80" d="M746,516c-2.64-1.28-4.15-1.75-5.85-4.65-2.94-5.04-2.93-24.55-1.91-30.61.73-4.33,3.2-7.38,6.76-9.74,1.94-.76,2.31-.77,3.52.65,2.31,2.73.46,36.92.04,43.6l-2.55.76Z"/>
  <path class="st59" d="M1068,279l-2.77,3.5-.23,45.5c-2.26.78-4.79,1-7,0-.79-.09-1.97-.36-2-.92-.62-12.45-.37-26.9,0-39.44-.74-4.34-.07-7.22,2-8.64,2.03-.67,4.36-1,7-1,1.89.01,2.72.97,3,1Z"/>
  <path class="st104" d="M1065,405v50c-2.31.13-4.68,0-7,0l-2-.92v-47.89l2-1.19c1.63-2.89,5.43-2.98,7,0Z"/>
  <path class="st43" d="M750,469c3.51-.16,5.51.9,6,3.18v44.64s-2,1.18-2,1.18c-4.12-.3-4.31-.21-8-2,1.14-1.67.97-3.55,1.04-5.45.38-10.89.64-24.32.02-35.1-.11-1.87.22-3.75-2.06-4.45,2.53-1.67,2.12-1.33,5-2Z"/>
  <path class="st8" d="M849,406c.65-.08,1.34.04,2,0v49c-4.65-.57-4.13.22-8-3l-.86-1.58c.91-13,1.11-26.52-.15-39.53l1.02-1.89c2.64-2.13,1.75-2.51,6-3Z"/>
  <path class="st11" d="M991,829c-10.8,2.15-21.4.35-28.52-8.98-1.47-1.93-6.25-9.54-3.49-11.53.94-.67,7.29-1.87,8.42-1.57.37.1,2.15,5.57,3.16,7.01,3.98,5.68,10.72,7.83,17.43,7.07.54,3.84-2.04,9.21,3,8Z"/>
  <path class="st20" d="M601,724c3.32,3.32-.47,83,1,94h48.5c2.29,0,1.37,9,1.51,11.01-6.32.02-12.69-.04-19.01,0-.36-1.27.5-10,0-10h-32v-95Z"/>
  <path class="st54" d="M1176,345l1.88,3.45c.53,2.18-.19,33.72-.78,36.22-.38,1.6-1.23,2.97-2.1,4.33-.26.19-.38,1.1-1.06,1.48-1.15.63-2.1.29-2.94.52-1.87.25-4.72-1.04-4.91-3.03-1.33-13.37.21-31.11,1.37-44.39l1.54-1.59c4.17.93,3.35.18,7,3Z"/>
  <path class="st83" d="M888,425c-.36,10.06,2.26,22.41-8,28v-45c2.27.77,4.41-2.15,6-4,.79.13,1.97.34,2.1.94,1.1,5.2,2.11,15.49-.1,20.06Z"/>
  <path class="st75" d="M845,327c-3.45-1.77-6.43-3.76-7.53-7.97s-1.12-25.99-.24-30.3c.78-3.82,4.2-7.34,7.77-8.73v47Z"/>
  <path class="st30" d="M1298,756c9.26-1.17,19.25.65,25.41,8.09,6.87,8.3,6.59,11.68-4.39,13.92-1.61-9.51-10.83-14.55-20.02-13-2.08-2.05-.62-6.18-1-9Z"/>
  <path class="st23" d="M785,345c-.77,1.58-1.14,3.13-1.39,4.87-.69,4.65-.75,28.02-.05,32.62.26,1.74.66,2.96,1.45,4.52-3.33,2.76-5.57,4.44-10,5-.05-16.09.14-32.17.57-48.24l1.43-1.76c3.3.79,5.01,1.61,8,3Z"/>
  <path class="st17" d="M1305,821v9c-7.3.38-15.38-1.71-20.94-6.56-2.94-2.56-10.14-12.54-5.39-15.28.83-.48,7.04-2.01,7.38-1.75.88.68,1.97,5.14,3.11,6.92,3.73,5.82,9.09,7.92,15.84,7.66Z"/>
  <path class="st72" d="M979,756c14.55-1.84,26.87,3.91,30.97,18.52l-9.95,3.48c-.34-9.42-11.79-14.57-20.01-13.01l-1-9Z"/>
  <path class="st113" d="M1152,342l2,.92v47.89l-2,1.19c-1.96-.08-4.09.2-6,0l-1.98-.67v-47.14c.73-2.94,5.65-3.42,7.98-2.19Z"/>
  <path class="st115" d="M1004,366c.89.18.86.52,0,1l1.92,3.86c.5,4.72,2.09,21.58-3.92,17.14-2.29-3.01-4.71-5.94-7-9-2.12-7.51-2.07-17.45,0-25,2.35-3.31,4.59-6.71,7-10,.47-.76,1.6-1.57,2.12-1.11,2.89,2.58,2.73,19.44-.12,23.11Z"/>
  <path class="st2" d="M760,468v50c-1.99-.06-4.02.15-6,0v-46.5s-4-2.5-4-2.5c4.12-.96,5.82-.84,10-1Z"/>
  <path class="st119" d="M1170,469c1.19.29,2.4.06,3.75.75s1.6,1.72,2.25,2.25c-.61,14.06-.58,28.85,0,43-3.25,2.6-3.97,2.61-8,3l-1.91-2.96-.95-37.55c-.72-6.56.9-9.39,4.85-8.49Z"/>
  <path class="st116" d="M777,342c-.98,15.08,1.29,31.7.07,46.59-.17,2.01-.14,2.45-2.07,3.41-1.27.16-2.69-.07-4,0l-2-.68.06-46.95c-1.61-.87-2.3-1.99-2.06-3.37,4.18.16,5.87,0,10,1Z"/>
  <path class="st4" d="M762,341c2.76.04,4.77.79,6.02,2.25l-.02,47.58-2,1.18c-2.31.06-4.7.1-7,0l-1.98-.72,1.03-46.61c-2.07-.49-3.42-1.37-4.05-2.67-1.25,2.6-2.78,2.6-4,0,2.98-1.85,8.21-.98,12-1Z"/>
  <path class="st52" d="M1044,279l2,.92v46.89l-2,1.19c-2.52,2.87-7.61-.72-6-4-.42-.74-1.08-1.11-2.03-1.13-1.08-1.63-1.2-34.67,1.03-38.87,2.63-3.23,2.76-3.77,7-5Z"/>
  <path class="st79" d="M1038,409c.78,0,1.97.19,2,.67.26,4.89.84,38.33,0,40.15l-2,1.18c-7.97-6.55-5.07-13.56-6.06-22.45-.2-1.84-1.86-3.64-1.94-4.55-3.16-3.2-3.19-19.66-.33-21.95.49-.39,1.62.37,2.33.95,2.88-.91,6.94,3.1,6,6Z"/>
  <path class="st66" d="M1176,515c-2.28-.7-1.95-2.58-2.06-4.45-.57-9.94-.66-24.22,0-34.11.13-1.86-.24-3.74,2.06-4.45,4.93,3.97,5.57,6.1,6.04,12.46.69,9.31,1.67,24.37-6.04,30.54Z"/>
  <path class="st35" d="M1170,216c1.19.29,2.4.07,3.75.75,1.48.75,1.6,1.71,2.25,2.25-.56,13.65-.65,28.16,0,42-3.06,2.72-3.56,3.46-8,4l-1.9-5.7c-.28-6.29-1.49-40.49-.21-42.17s1.77-1.57,4.11-1.13Z"/>
  <path class="st102" d="M790,240c.18,6.6-.01,13.24-.59,19.89l-2.41.11c-2.22.07-3.31,2.05-5,3-.47.05-.93.06-1.33-.08-2.09-.7-1.19-39.66-.67-43.75l2-1.17c10.21,6.95,4.38,14.34,8,22Z"/>
  <path class="st58" d="M782,471l2,2.55v38.04l-2,3.41c-3.34,2.45-1.95,2.56-7,3l.94-47.62-2.94-2.38c4.25.42,5.34,1.12,9,3Z"/>
  <path class="st21" d="M1163,215l2,.92v47.89l-2,1.19c-1.99.09-4.01-.01-6,0v-50c1.99.02,4.02-.11,6,0Z"/>
  <path class="st113" d="M1153,468c.79.09,1.97.36,2,.92.61,13.13.66,29.26,0,42.37.68,3.62.01,5.86-2,6.71-1.99-.06-4.02.14-6,0l-2-.92v-47.89l2-1.19c1.95-.18,4.03.07,6,0Z"/>
  <path class="st1" d="M1065,278c-.7,0-4.83.87-7,1-1.24,2.86-3.73,2.81-5,0l-2.01,2.56v44.05c.92.51,1.6,1.31,2.01,2.39,1.07-2.77,3.97-2.83,5,0,2.33.04,4.67,0,7,0h6l-.87,2.22c-8.34,1.32-16.98,1.54-25.31.04l-.82-2.26v-49c6.76-1.97,13.99-.63,21-1Z"/>
  <path class="st58" d="M782,218v45c-3.18,1.79-2.5,1.33-6,2l-1-50c3.05.39,4.57,1.34,7,3Z"/>
  <path class="st99" d="M1131,338c1.71,2.18,3.31,5.23,6,7l1.43,1.64c-.81,12.83-.88,25.74-.21,38.71l-2.22,1.65c-.65,1.56-3.01,2.37-3.72,3.31-.49.65-.16,1.53-.28,1.69-.6.65-1.63,1.31-2.14.85-2.5-2.25-2.82-20.53.14-23.85l-1.89-1.46c.46-2.67.76-5.19.89-7.54-1.44-3.82-2.81-20.47-.42-22.85.56-.55,1.75.12,2.42.85Z"/>
  <path class="st106" d="M790,490c-.02,4.22-1.22,14.76-2.71,18.79-1.67,4.52-2.26,3.98-5.29,6.21v-44c.87.45,2.34,1.99,2.5,1.98.26-.02,2.98-3.34,3.5-3.98.84.12,1.78.26,2.3.89.73.87.47,17.77-.3,20.11Z"/>
  <path class="st123" d="M1166,341c1.78,3.11-1.9,4.35-3,1-1.25,2.85-3.73,2.82-5,0-1.33,2.84-4.63,2.77-6,0-1.68.11-3.43-.37-5.05.44l-1,2.09.05,47.47c-1.68-.18-3.41-.41-5-1l-1.47-1.53c-.5-15.18-.31-31.22,1.03-46.31l1.44-1.16c5.23-1.62,18.19-1.56,24-1Z"/>
  <path class="st95" d="M1142,216l-1,48c-2.41-.76-4.64-1.71-6-4l-1.69-1.28c.39-12.99.95-25.9,1.69-38.72,3.01-3.64,2.69-2.92,7-4Z"/>
  <path class="st48" d="M1158,468c.79.09,1.98.36,2,.92.57,12.73,1.2,31.78,0,44.1.58,2.76-.08,4.42-2,4.98-1.66.02-3.34.05-5,0v-50c1.65-.06,3.34-.04,5,0Z"/>
  <path class="st47" d="M733,758l-2,9-1.87,1.36c-7.49-2.31-16.01-1.65-23.07,1.72l-2.06-1.08c-.31-3.01,1.33-7.63-2-9,9.54-4.86,20.7-5.78,31-2Z"/>
  <path class="st114" d="M738,825c-10.84,6.07-17.99,6.47-30,3,1.49-2.37,2.52-6.61,1-9l2.42-1.27c7.37,2.3,15.51,1.16,21.89-3.22l2.69.49,2,10Z"/>
  <path class="st9" d="M1044,405c.79.09,1.96.35,2,.92.97,12.75,1.11,34.23,0,46.89l-2,1.19c-1.17-.3-2.4-.06-3.75-.75s-1.59-1.7-2.25-2.25v-42c-2.7-3.18,3.39-7.23,6-4Z"/>
  <path class="st28" d="M1038,324c-1.35,1.57-2.64.99-1.3.47,1.74-.68-3.92,10.07-6.7,7.53l-2.41-1.31c-1.14-7.53-1.46-15.54,1.41-22.69.78-1.19,3.63-5.16,3.79-5.71,2.15-7.34-2.5-10.06,4.21-18.29l1,40Z"/>
  <path class="st91" d="M846,765l-2,7-2.81.17c-6.38-5.37-14.78-6.63-22.63-3.98l-2.56-1.19v-10c13.74-3.17,20.33-1.2,30,8Z"/>
  <path class="st12" d="M843,452c-7.73-6.43-6.75-21-6.04-30.54.47-6.37,1.11-8.47,6.04-12.46,1.46,1.24,1.29,3.79,1.39,5.56.51,9.31.69,23.34-.02,32.54-.12,1.58,0,3.85-1.37,4.89Z"/>
  <path class="st2" d="M760,215v50.01c-1.65.07-3.34-.1-5,0-.79-.09-1.98-.37-2-.92-.25-5.94-1.46-45.99,0-47.89l2-1.19c1.65-.11,3.34.05,5,0Z"/>
  <path class="st67" d="M922,350c3.73,4.71,7.55,9.45,11.5,13.99l1.5-7.99c-.26,3.29.19,6.71,0,10.01-6.01-2.15-.09,2.32,0,2.66.47,2.08-.17,5.01.02,7.33l-1.49-6.99c-3.8,4.69-7.69,9.33-11.51,13.99-1.66-10.36-1.66-22.64,0-33Z"/>
  <path class="st123" d="M1147,468v50c-2.93-.21-3.24-.15-6-1l-1.38-.95c-.41-14.97-.29-30.05.34-45.25l2.04-1.8c2.09-.64,2.76-.79,5-1Z"/>
  <path class="st90" d="M767,341l4.06,1.57-.06,49.43c-1.66.09-3.34-.04-5,0l.02-49.43-4.02-1.57c1.66,0,3.34-.06,5,0Z"/>
  <path class="st48" d="M1158,342c.79.09,1.98.36,2,.92.57,12.73,1.2,31.78,0,44.1.58,2.76-.08,4.42-2,4.98-1.99.03-4.02.08-6,0v-50c1.98-.13,4.01.02,6,0Z"/>
  <path class="st13" d="M1169,342c-2.02,14.94.12,30.39-1.09,45.5l3.09,3.5c-3.5.97-4.46.82-8,1l-2-.92v-47.89l2-1.19c1.09-.05,2.52.31,3-1,1.2.12,2.1.8,3,1Z"/>
  <path class="st2" d="M759,392c-1.65-.07-3.37.15-5,0l-1.86-.92c.01-15.94-.04-31.91-.14-47.89l2-1.19c2.53.16,5.65-.9,6.03,2.52l-1.03,47.48Z"/>
  <path class="st64" d="M1176,345c.42.33,3.89,3.49,4.05,3.71,2.65,3.89,2.49,22.45,1.99,27.82-.54,5.75-2.49,9.01-7.04,12.46l1-44Z"/>
  <path class="st17" d="M1176,219c3.37,2.81,4.63,4.87,5.05,9.45.54,5.85.69,25.47-2.02,29.83-.2.31-2.36,2.11-3.03,2.72-2.28-.7-1.95-2.58-2.06-4.45-.53-9.22-.8-24.05.04-33.08.16-1.77.33-3.44,2.02-4.48Z"/>
  <path class="st13" d="M1170,216c-3.03-.56-1.92,1.53-2,3.45-.6,15.13.44,30.41,0,45.55-1.56.19-3.37-.08-5,0v-50c3.24.18,4.01.26,7,1Z"/>
  <path class="st56" d="M850,857c-8.1,6.49-16.49,8.46-27,8v-9c8.12.77,18.74-2.6,24-9,2.24,3.11-.77,8.38,3,10Z"/>
  <path class="st97" d="M899,321c1.07,4.57,2.42,17.81-.69,21.25l-2.31-.25c-3.33-4.29-6.38-8.94-10-13,3.02.56,1.94-1.53,2-3.45.2-5.85-.76-11.9,1-17.55,2.37,3.55,7.2,9.33,10,13Z"/>
  <path class="st21" d="M1163,342v50c-1.66.09-3.34-.02-5,0v-50c1.66-.01,3.34.08,5,0Z"/>
  <path class="st25" d="M1058,405v50c-1.66,0-3.34.07-5,0l-2-.92v-47.89l2-1.19c1.79-2.57,3.21-2.56,5,0Z"/>
  <path class="st110" d="M1049,405c.79.09,1.98.37,2,.92.62,15.13.62,32.75,0,47.89l-2,1.19c-2.55-.22-2.88-.46-5-1v-49c.49-3.12,3.69-2.76,5,0Z"/>
  <path class="st70" d="M1170,469c-3.09.06-2.2.82-2.43,2.78-1.61,14.02,1.11,31.82.43,46.22-1.62.16-3.35-.07-5,0l-2-.92v-47.89l2-1.19c3.23.19,4,.26,7,1Z"/>
  <path class="st86" d="M1030,332c-1.08,5.52-3.99,9.43-9,12-1.55,1.79-2.35,1.69-3.44-.39-1.15-2.19.22-18.36,1.44-21.61,3.25-4.47,7.01-9.43,10-14,.61,7.77-1.29,16.55,1,24Z"/>
  <path class="st21" d="M1163,468v50c-1.66.07-3.34-.02-5,0v-50c1.66.04,3.35-.1,5,0Z"/>
  <path class="st24" d="M807,391c2.95,4.01,6.03,7.99,9,12-3.77,6.02-.42,15.09-2,22-3.17-4.23-6.75-8.6-10-13-1.1-3.12-1.86-20.92-.04-22.15.9-.73,1.91-.35,3.04,1.15Z"/>
  <path class="st122" d="M749,216c.79.07,1.97.31,2.02.88,1.17,12.7,1.89,34.34.96,46.89l-1.98,1.23c-3.53-.64-3.04-1.51-5-3-1.38-.61-1.71-2.02-2-3.41-.59-2.87-.62-34.65,0-37.18l2-3.41c2.1-1.41.93-1.11,4-2Z"/>
  <path class="st16" d="M750,391c-1.17-.3-2.4-.05-3.75-.75s-1.55-1.63-2.25-2.25c-.89-1.52-1.68-3.11-2-4.89-.74-4.18-.64-29.75.25-33.74.35-1.57.91-3.01,1.75-4.37,1.03-.95,1.66-1.46,3-2,1.29-.32,3.2-.59,4.31.2,1.83,1.29.74,38.95.49,44.64l-1.8,3.16Z"/>
  <path class="st41" d="M914,393c-2.96,3.68-6.08,7.32-9,11-2.43,2.01-2.95,1.93-4.08-.85-.86-2.13.34-16.07,1.08-19.15,2.79-3.5,6.54-7.66,9-11,4.15,5.31-.53,14.14,3,20Z"/>
  <path class="st24" d="M816,456c-3.03,3.97-5.94,8.04-9,12-.54.6-1.27,1.35-2,1.21-3.47-.65-2.52-19.25,0-22.21,2.6-3.45,6.71-8.6,9-12,1.28,5.79.44,11.69.65,17.53.05,1.49-.97,2.85,1.35,3.47Z"/>
  <path class="st31" d="M1117,411c-2.93,3.92-6.22,8.04-9,12l-2-23c-.38-4.54,4.57-10.24,9-11,.78.02,1.95.15,2.07.7,1.28,5.76,1.89,15.86-.07,21.3Z"/>
  <path class="st95" d="M1142,469l-1,48c-3.92-1.21-3.42-1.18-6-4-1.31-5.76-2.9-39.5.43-40.74.49-.18,1.02-.24,1.57-.26,1.3-2.44,2.72-2.31,5-3Z"/>
  <path class="st34" d="M745,218v44c-.34-.26-1.54-.06-2.43-1.03-2.24-2.4-3.31-5.18-3.61-8.43-.54-5.81-.71-21.4.28-26.82.84-4.59,2.53-5.55,5.77-7.73Z"/>
  <path class="st60" d="M1124,457c1.76,3.53,1.5,17.35.12,20.76l-2.12,1.24c-3.2-4.04-6.78-7.9-10-12-.37-6.66-.16-13.37.62-20.13l2.38-.87c2.79,3.69,6.12,7.25,9,11Z"/>
  <path class="st126" d="M750,342c1.13-.15,2.81-.08,4,0v50c-2.23-.21-2.51-.62-4-1-1.19-14.12,1.58-30.74.05-44.55-.25-2.27-.34-3.47-3.05-3.45,1.23-.5,1.13-.75,3-1Z"/>
  <path class="st36" d="M1099,322c-3.32.76-8.29-4.83-7-8-1.54-6.62-1.42-15.34,0-22,2.01-2.72,3.91-6.19,6-9,1.65,1.05,1.95,2.75,2.06,4.53.53,8.4-.03,20.41-.2,29.11-.04,1.88.48,3.63-.87,5.36Z"/>
  <path class="st10" d="M755,215v50c-1.24.07-2.79.12-4,0-.33-.03-.68.06-1,0l-1-49c2.77-.8,3.12-.81,6-1Z"/>
  <path class="st24" d="M816,329c-3.06,3.9-5.94,8.08-9,12-2.45,1.98-2.95,1.95-4.08-.85-1.31-3.24.28-16.43,2.08-20.15,2.89-3.72,6.23-7.43,9-11,2.26,6.18-1.4,14.46,2,20Z"/>
  <path class="st34" d="M744,388c-3.54-3.1-4.58-4.55-5.05-9.45-.6-6.22-.69-24.36,1.66-29.44.92-1.99,1.91-2.74,3.39-4.11v43Z"/>
  <path class="st53" d="M1142,342l-1,49c-1.69-.62-4.57-2.21-5-4,1.49-8.02-2.41-36.51,1-42,1.03-1.65,3.21-2.45,5-3Z"/>
  <path class="st79" d="M1135,260c-.27.64-3.44,3.14-4,4l-2.39-.22c-2.49-6.96-1.71-14.88.39-21.78,4.43-7.45-.86-13.7,6-22,1,2.66.99,6.62,1.02,9.5.05,5.69.55,26.8-1.02,30.5Z"/>
  <path class="st5" d="M1021,344c-1.4,5.16-4.44,9.21-9,12l-2.39-1.01c-.7-6.91-.9-13.58-.61-19.99,3.2-4.38,6.94-8.79,10-13,1.19,5.92.4,11.97.46,18,.02,1.65-1.28,3.1,1.54,4Z"/>
  <path class="st108" d="M1115,446c-1.98,5.21-.81,11.9-1,17.55-.06,1.93,1.02,4.01-2,3.45-2.8-3.57-5.3-7.55-8-11,2.31-.61,1.3-1.97,1.35-3.47.19-6.18-.51-12.38.65-18.53,2.53,3.83,6.26,8.38,9,12Z"/>
  <path class="st93" d="M798,251c1.52,6.59,1.56,13.5.12,20.76l-2.12,1.24c-1.73-2.45-9.18-10.89-9-13,.02-.2,1.02-1.12,1.04-2.42.06-5.45-1.49-13.35,1.96-17.58,1.04,2.19,6.05,8.2,8,11Z"/>
  <path class="st7" d="M1098,411c1.66,1.04,1,3.79,1.02,5.49.12,9.3.29,18.77-.02,28.06-.06,1.93,1.02,4.01-2,3.45-1.76-2.24-3.25-4.78-5-7-2.9-6.59-2.98-15.43,0-22,.07-4.23,1.95-6.76,6-8Z"/>
  <path class="st79" d="M1132,467c.88,1.15,2.38,5.42,5,5-2.83,5.3-.74,27.95-.95,35.48-.05,1.93-.49,3.71-1.05,5.52-6.21-6.79-3.49-11.21-4.01-19.52-.1-1.59-.93-3.19-.99-4.48-3.49-2.17-2-21.5-.41-22.55.62-.4,1.64.14,2.41.55Z"/>
  <path class="st29" d="M825,415c3.57,4.86,7.91,9.3,10.83,14.66.12,1.41-7.35,10.82-8.86,12.84-.91,1.23-2.54,1.93-2.97,2.5l-.81-21.5,1.81-8.5Z"/>
  <path class="st29" d="M825,318c-2.84-3.22-.96-7.41-1.02-10.5-.09-5.16-.69-10.45-.36-15.75.09-1.45-1.37-2.96,1.37-3.75,3.66,5.15,7.83,10.02,11.04,15.5,0,1.49-9.29,12.22-11.04,14.5Z"/>
  <path class="st97" d="M1122,379c2.3-2.11,2.96-1.93,4.08.85,1,2.47-.33,17.69-1.08,21.15-2.56,3.4-5.51,6.66-8,10l-2-22c-1.09-3.67,3.12-9.88,7-10Z"/>
  <path class="st73" d="M799,478c-3.01,3.9-5.56,8.37-9,12,0-.74-1.57-4.56-1.62-6.67-.12-4.38,1.09-9.83-.38-14.33,2.92-3.61,6.01-8.13,9-12l2.08,2.31-.08,18.69Z"/>
  <path class="st101" d="M902,384c1.92,5.08.78,11.11,1,16.55.08,1.92-1.03,4.01,2,3.45-3.24,4.08-6.84,8.08-10,12l-2.23-1.84.23-19.16c2.98-3.64,6.08-7.34,9-11Z"/>
  <path class="st112" d="M1123.28,724.29c7.74-6.31,18.26,7.03,9.7,13.18-9.1,6.53-17.56-6.77-9.7-13.18Z"/>
  <path class="st85" d="M907.32,736.69c-6.66-7.28,3.63-18.44,11.2-11.71,8.22,7.31-3.9,19.68-11.2,11.71Z"/>
  <path class="st85" d="M907,331c.58,2.47.98,20.22.25,20.98-.61.62-1.39.91-2.25,1.02-2.77-3.67-6.13-7.31-9-11,4.74-5.45-.19-14.84,3-21,2.55,3.34,5.39,6.6,8,10Z"/>
  <path class="st88" d="M1117,321c-.28,6.32-.35,12.74-.19,19.26l-1.81,1.74c-3.53,2.58-10.86-7.94-9-11l2-21c2.78,3.69,6.09,7.34,9,11Z"/>
  <path class="st113" d="M1053,405v50c-1.32-.06-2.69.11-4,0v-50c.96-2.82,3.03-2.78,4,0Z"/>
  <path class="st65" d="M915,341c-4.97,4.91.34,15.14-3,21-2.08-2.89-4.87-6.18-7-9,1.76-7.09-1.37-15.53,2-22,2.56,3.34,5.38,6.66,8,10Z"/>
  <path class="st120" d="M1131,264c-2.56,3.88-5.33,7.27-8,11-.78-.02-1.96-.15-2.07-.7-1.23-5.95-1.93-15.72.07-21.3,2.14-2.96,6.47-8.42,8-11,1.67,6.97-1.81,15.91,2,22Z"/>
  <path class="st31" d="M1115,286c-2.62,3.64-5.48,7.34-8,11,.21-6.96.74-14.09.5-21.03-.05-1.46.59-2.33-1.5-2.97,2.38-3.22,4.62-6.73,7-10,.69-.72,2-1.42,2.48-.87,2.71,3.11,1.07,19.46-.48,23.87Z"/>
  <path class="st69" d="M1123,275c-2.64,3.69-5.36,7.33-8,11-1.22-6.35.02-12.79-.3-19.1-.08-1.68.78-3.16-1.7-3.9,2.54-3.48,5.73-6.87,8-10l2,22Z"/>
  <path class="st71" d="M807,468c-2.61,3.38-5.4,6.63-8,10-2.3-.7-1.93-2.58-2.06-4.45-.36-5.38.38-11.14.06-16.55,2.59-3.35,5.49-6.68,8-10,.32,5.42-.42,11.18-.06,16.55.13,1.86-.24,3.74,2.06,4.45Z"/>
  <path class="st60" d="M1117,321c2.08,2.61,4.19,5.75,6,8l1.97,5.24c.57,4.24,1.75,20.31-3.97,15.76-3.62.79-8.99-5.05-6-8-.68-4.22-.18-12.88,0-17.55.08-1.92-1.03-4.01,2-3.45Z"/>
  <path class="st100" d="M1132,467c-1.62.89-1.42,2.04-1.58,3.53-.43,4-.61,14.36-.42,18.47-3.87-2.01-5.54-6.9-8-10l2-22c2.59,3.37,5.41,6.63,8,10Z"/>
  <path class="st68" d="M895,416c-1.89,2.35-3.64,7.32-7,9l-2-21c2.19-2.56,4.65-6.12,7-9,2.39.7,1.63,2.18,1.73,3.86.34,5.67-.6,11.45.27,17.14Z"/>
  <path class="st98" d="M1009,335c3.02-.56,1.94,1.53,2,3.45.19,5.75-.91,12.14,1,17.55,1.89,2.99-4.54,12.15-8,10-.05-6.03.18-12.96-.32-18.88-.13-1.47.17-2.58-1.68-3.12,2.24-3.06,4.78-5.96,7-9Z"/>
  <path class="st125" d="M805,261c1.99,2.05,1.01,18.49.12,19.78-.49.72-1.31,1.04-2.12,1.22-2.05-2.81-4.72-5.77-7-9l2-22c2.3,3.3,4.67,6.72,7,10Z"/>
  <path class="st71" d="M800,381c2.16,3.01,4.59,6.73,7,10-3.03-.56-1.92,1.53-2,3.45-.23,5.76.94,12.14-1,17.55-2.44-3.3-4.63-6.71-7-10-.91-3.51-2.77-20.18,1.24-20.98.57-.11,1.16-.08,1.76-.02Z"/>
  <path class="st6" d="M1032,403c-2.28.7-1.95,2.58-2.06,4.45-.28,4.81-.34,11.81.06,16.55-3.09-2.18-4.86-6.21-7-9-2.97-6.46-2.49-13.97-1.4-20.89l2.4-1.11c4.26.5,8.47,5.72,8,10Z"/>
  <path class="st77" d="M1011,376l1.98,5.82c.64,4.13,1.62,19.89-3.98,15.18-2.33-3-4.69-5.96-7-9,3.03.56,1.92-1.53,2-3.45.23-5.8.05-11.74,0-17.55,3.45-2.59,8.69,5.86,7,9Z"/>
  <path class="st81" d="M1132,392c-2.25,3.07-4.72,5.98-7,9-1.82-5.97-.75-12.37-1-18.55-.08-1.92,1.03-4.01-2-3.45-1.32-3.54,4.16-10.97,8-10,.03,5.46-.13,14.41.42,19.47.16,1.49-.04,2.64,1.58,3.53Z"/>
  <path class="st14" d="M1131,338c-2,.6-1.48,1.52-1.55,3-.3,6.19,1.01,12.73-.45,19-3.08.81-9.71-7.16-8-10,3.03.56,1.92-1.53,2-3.45.23-5.83-.17-11.72,0-17.55,2.29,2.85,5.5,5.81,8,9Z"/>
  <path class="st50" d="M799,350c-1.98,2.56-5.24,6.45-7,9-.52-6.85,1.17-14.45-1-21,2.31-3.11,4.67-5.96,7-9l2.34,1.29c1.18,6.9.73,13.47-1.34,19.71Z"/>
  <path class="st15" d="M800,381c-4.97,4.91.34,15.14-3,21-2.08-2.89-4.66-5.69-7-9,4.88-5.02-.21-14.93,3-21,2.05,2.98,4.82,5.95,7,9Z"/>
  <path class="st26" d="M805,261c1.89,2.66,4.05,5.27,6,8,1.01,6.96,1.38,14.07,1.1,21.34l-2.1,1.66c-2.43-3.31-4.62-6.74-7-10l2-21Z"/>
  <path class="st87" d="M818,278c-2.28.7-1.95,2.58-2.06,4.45-.28,4.97-.42,12.71.06,17.55-2.86-1.83-4.16-5.5-6-8,.61-7.43-1.29-15.9,1-23,2.19,3.05,4.79,5.92,7,9Z"/>
  <path class="st3" d="M805,320c.17,5.82-.23,11.71,0,17.55.08,1.93-1.03,4.01,2,3.45-2.53,3.24-5.72,6.05-8,9-1.15-7,.87-14.12-1-21,2.32-3.03,4.67-5.99,7-9Z"/>
  <path class="st42" d="M1018,385l1.1,3.87c.38,3.69,1.19,21.08-4.1,16.13-2.04-2.64-3.97-5.38-6-8,3.02.56,1.94-1.53,2-3.45.2-5.84-.14-11.72,0-17.55,4.43,1.25,6.89,4.4,7,9Z"/>
  <path class="st109" d="M1024,393c-2.29,6.76-.4,14.91-1,22-2.57-3.35-5.4-6.64-8-10,3.02.56,1.94-1.53,2-3.45.18-5.43-.89-11.47,1-16.55,3.62-.19,7.12,4.58,6,8Z"/>
  <path class="st111" d="M995,379c-2-2.67-9.06-9.69-8.96-12.51s7.14-9.92,8.96-12.49c1.06,8.2,1.06,16.75,0,25Z"/>
  <path class="st49" d="M1092,314c-4.35.24-7.65-6.1-9-10,0-.33,0-.67,0-1,2.74-3.78,6.24-7.28,9-11,1.74,6.52,1.58,15.45,0,22Z"/>
  <path class="st82" d="M1092,441c-2.38-3.02-5.7-7.97-9-9,.02-.66,0-1.33,0-2,1.12-4.81,3.82-10.31,9-11v22Z"/>
  <path class="st55" d="M618.79,589.27c41.56-3.8,45.87,60.36,7.61,64.62-43.14,4.8-47.7-60.95-7.61-64.62Z"/>
  <path class="st55" d="M916.79,589.27c44.91-4.21,46.32,69.23-.28,64.71-35.51-3.44-36.5-61.26.28-64.71Z"/>
  <path class="st55" d="M844,772c16.4,15.74,8.38,46.02-15,48-31.35,2.66-35.71-43.89-13-53,10.01-4.02,20.22-2.47,28,5Z"/>
  <path class="st55" d="M731,767c2.3,1.13,9.57,8.94,11.03,11.47,6.66,11.63,4.57,28.05-6.03,36.53-7.62,6.09-17.93,7.54-27,4-19.12-7.46-21.5-38.79-5-50,6.31-4.29,20.21-5.33,27-2Z"/>
  <path class="st55" d="M1092,314c2.23,2.75,5.02,5.53,7,8,2.21,2.76,4.67,6.08,7,9,2.75,3.44,4.97,8.6,9,11,.52,3.21,4.11,5.5,6,8,2.38,3.14,6.11,7.15,8,10,3.62,5.47.98,5.16,1,9-3.14,2.88-5.44,6.63-8,10s-4.73,7-7,10c-2.8,3.69-6.15,7.24-9,11s-5.27,7.41-8,11c-2.01,2.65-3.99,5.37-6,8-2.83,3.71-6.21,7.23-9,11,0-9.76,1.51-20.48-10-24-3.45-1.06-4.68-.8-8-1-2.31-.14-4.68.04-7,0-1.66-.03-3.34-.06-5,0-1.33.04-2.67-.07-4,0-1.6.08-3.55-.24-5,0-2.59.43-4.85,1.5-6,4-1.71-1.53-4.69-4.31-6-6-2.6-3.33-5.48-6.78-8-10-1.95-2.5-4.05-5.48-6-8-2.31-2.99-4.71-6.02-7-9-1.92-2.5-3.63-7.23-7-9,0-.33,0-.67,0-1,3.49-2.43,5.51-6.69,8-10,3-3.99,6.01-8,9-12s5.98-8.03,9-12c2.12-2.78,4.85-5.69,6.02-9,.17-.13,1.63.7,1.98,1,2.28,1.91,2.13,2.92,6,4,6.65,1.86,20.36,1.54,27,0,.93-.21,1.97-.02,3.05-.46,1.02-.41,1.4-1.21,1.95-1.54,9.12-5.46,6.87-12.55,7-22,3.41,2.66,6.26,6.62,9,10Z"/>
  <path class="st25" d="M1058,279v49c-1.66-.03-3.35.11-5,0-.79-.09-1.97-.36-2-.92-.62-12.45-.37-26.9,0-39.44-.74-4.34-.07-7.22,2-8.64,1.66-.04,3.35.1,5,0Z"/>
  <path class="st113" d="M1053,279v49c-1.14-.08-3.84.54-4.02-.58v-48.42c1.34-.03,2.68.03,4.02,0Z"/>
</svg>